<mxfile host="app.diagrams.net" agent="Mozilla/5.0 (Windows NT 10.0; Win64; x64) AppleWebKit/537.36 (KHTML, like Gecko) Chrome/137.0.0.0 Safari/537.36 Edg/137.0.0.0" version="27.1.6">
  <diagram name="Page-1" id="n6Rv9YjIyv336KenJms3">
    <mxGraphModel dx="2828" dy="1164" grid="1" gridSize="10" guides="1" tooltips="1" connect="1" arrows="1" fold="1" page="1" pageScale="1" pageWidth="827" pageHeight="1169" math="0" shadow="0">
      <root>
        <mxCell id="0" />
        <mxCell id="1" parent="0" />
        <mxCell id="JX7bwGu5Rn9htQJcEjx7-1" value="MQTT" style="rounded=1;whiteSpace=wrap;html=1;" parent="1" vertex="1">
          <mxGeometry x="-160" y="365" width="120" height="60" as="geometry" />
        </mxCell>
        <mxCell id="Efv2-FmZEsQ7UhGXycy9-3" style="edgeStyle=orthogonalEdgeStyle;rounded=0;orthogonalLoop=1;jettySize=auto;html=1;" parent="1" source="JX7bwGu5Rn9htQJcEjx7-2" target="JX7bwGu5Rn9htQJcEjx7-10" edge="1">
          <mxGeometry relative="1" as="geometry" />
        </mxCell>
        <mxCell id="Efv2-FmZEsQ7UhGXycy9-13" style="edgeStyle=orthogonalEdgeStyle;rounded=0;orthogonalLoop=1;jettySize=auto;html=1;exitX=0;exitY=0.5;exitDx=0;exitDy=0;entryX=1;entryY=0.5;entryDx=0;entryDy=0;" parent="1" source="JX7bwGu5Rn9htQJcEjx7-2" target="JX7bwGu5Rn9htQJcEjx7-1" edge="1">
          <mxGeometry relative="1" as="geometry" />
        </mxCell>
        <mxCell id="JX7bwGu5Rn9htQJcEjx7-2" value="MQTT To TDEngine" style="rounded=1;whiteSpace=wrap;html=1;" parent="1" vertex="1">
          <mxGeometry x="50" y="365" width="120" height="60" as="geometry" />
        </mxCell>
        <mxCell id="JX7bwGu5Rn9htQJcEjx7-4" value="Generator To MQTT" style="rounded=1;whiteSpace=wrap;html=1;" parent="1" vertex="1">
          <mxGeometry x="-370" y="365" width="120" height="60" as="geometry" />
        </mxCell>
        <mxCell id="JX7bwGu5Rn9htQJcEjx7-11" style="edgeStyle=orthogonalEdgeStyle;rounded=0;orthogonalLoop=1;jettySize=auto;html=1;entryX=0;entryY=0.5;entryDx=0;entryDy=0;exitX=1;exitY=0.5;exitDx=0;exitDy=0;" parent="1" source="JX7bwGu5Rn9htQJcEjx7-4" target="JX7bwGu5Rn9htQJcEjx7-1" edge="1">
          <mxGeometry relative="1" as="geometry" />
        </mxCell>
        <mxCell id="JX7bwGu5Rn9htQJcEjx7-10" value="TDEngine" style="rounded=1;whiteSpace=wrap;html=1;" parent="1" vertex="1">
          <mxGeometry x="260" y="365" width="120" height="60" as="geometry" />
        </mxCell>
        <mxCell id="Efv2-FmZEsQ7UhGXycy9-5" style="edgeStyle=orthogonalEdgeStyle;rounded=0;orthogonalLoop=1;jettySize=auto;html=1;" parent="1" source="Efv2-FmZEsQ7UhGXycy9-4" target="JX7bwGu5Rn9htQJcEjx7-10" edge="1">
          <mxGeometry relative="1" as="geometry" />
        </mxCell>
        <mxCell id="Efv2-FmZEsQ7UhGXycy9-7" style="edgeStyle=orthogonalEdgeStyle;rounded=0;orthogonalLoop=1;jettySize=auto;html=1;" parent="1" source="Efv2-FmZEsQ7UhGXycy9-4" target="Efv2-FmZEsQ7UhGXycy9-6" edge="1">
          <mxGeometry relative="1" as="geometry" />
        </mxCell>
        <mxCell id="Efv2-FmZEsQ7UhGXycy9-4" value="TDEngine to KeepHQ" style="rounded=1;whiteSpace=wrap;html=1;" parent="1" vertex="1">
          <mxGeometry x="470" y="365" width="120" height="60" as="geometry" />
        </mxCell>
        <mxCell id="Efv2-FmZEsQ7UhGXycy9-6" value="KeepHQ" style="rounded=1;whiteSpace=wrap;html=1;" parent="1" vertex="1">
          <mxGeometry x="460" y="150" width="120" height="60" as="geometry" />
        </mxCell>
        <mxCell id="Efv2-FmZEsQ7UhGXycy9-9" value="Read topic" style="text;whiteSpace=wrap;html=1;" parent="1" vertex="1">
          <mxGeometry x="400" y="410" width="60" height="40" as="geometry" />
        </mxCell>
        <mxCell id="Efv2-FmZEsQ7UhGXycy9-10" value="Insert" style="text;whiteSpace=wrap;html=1;" parent="1" vertex="1">
          <mxGeometry x="180" y="400" width="60" height="40" as="geometry" />
        </mxCell>
        <mxCell id="Efv2-FmZEsQ7UhGXycy9-11" value="Publish to MQTT" style="text;whiteSpace=wrap;html=1;" parent="1" vertex="1">
          <mxGeometry x="-230" y="400" width="60" height="40" as="geometry" />
        </mxCell>
        <mxCell id="Efv2-FmZEsQ7UhGXycy9-12" value="Subscribe on MQTT" style="text;whiteSpace=wrap;html=1;" parent="1" vertex="1">
          <mxGeometry x="-20" y="400" width="60" height="40" as="geometry" />
        </mxCell>
        <mxCell id="Efv2-FmZEsQ7UhGXycy9-14" value="Incident" style="text;whiteSpace=wrap;html=1;" parent="1" vertex="1">
          <mxGeometry x="450" y="270" width="60" height="40" as="geometry" />
        </mxCell>
      </root>
    </mxGraphModel>
  </diagram>
</mxfile>
